<svg xmlns="http://www.w3.org/2000/svg" viewBox="0 0 1021 1021">
  <!-- El logo original es 1021x793; lo centramos verticalmente para cumplir con icon generator -->
  <g transform="translate(0 114)">
  <g transform="translate(0,793) scale(0.1,-0.1)" fill="#88FCA4">
    <path d="M5080 7233 c-81 -8 -312 -54 -395 -78 -436 -125 -833 -377 -1128
-714 -334 -383 -532 -843 -579 -1347 -12 -134 -5 -507 37 -2024 35 -1232 35
-1276 20 -1355 -55 -289 -322 -494 -615 -472 -142 11 -266 70 -370 176 -111
113 -164 249 -163 416 2 261 189 490 451 551 94 22 225 15 321 -19 l73 -26 -7
327 c-4 180 -8 328 -10 330 -9 10 -150 24 -255 24 -606 2 -1114 -449 -1190
-1056 -44 -349 73 -707 319 -968 161 -172 358 -288 595 -350 114 -29 367 -37
488 -14 446 84 809 402 942 824 58 185 59 210 47 947 -6 369 -14 705 -16 748
-3 42 -2 77 3 77 4 0 21 -14 38 -31 16 -17 76 -70 134 -118 285 -238 598 -395
965 -485 131 -32 593 -159 720 -198 147 -45 209 -80 292 -163 114 -116 167
-249 166 -415 -3 -300 -241 -551 -538 -567 -118 -7 -192 8 -294 58 -155 76
-279 230 -311 386 -17 78 -8 252 16 323 10 30 40 87 66 125 25 39 44 73 40 76
-6 6 -608 159 -624 159 -3 0 -22 -38 -42 -85 -185 -430 -94 -940 229 -1282
238 -254 536 -385 875 -386 202 -1 377 41 563 135 150 75 333 237 434 384 145
212 208 420 208 689 -1 258 -65 469 -208 679 -106 156 -310 328 -488 410 -67
31 -346 116 -794 242 -93 26 -171 51 -173 55 -2 4 -49 22 -105 39 -552 172
-988 624 -1136 1180 -113 424 -68 849 131 1230 227 436 611 742 1088 869 257
68 562 71 815 9 327 -80 584 -225 825 -467 241 -242 401 -550 468 -896 13 -69
16 -303 22 -1705 7 -1808 1 -1656 76 -1872 118 -340 359 -616 674 -773 107
-54 198 -83 328 -105 257 -45 504 -9 737 105 268 132 472 352 587 633 62 152
82 259 82 442 0 210 -30 348 -111 519 -237 496 -775 770 -1318 669 l-65 -11 0
-161 c0 -89 3 -238 7 -333 l6 -172 36 18 c70 36 142 51 246 51 172 0 285 -47
405 -169 122 -123 170 -238 170 -406 0 -163 -54 -296 -165 -408 -112 -113
-249 -168 -416 -169 -251 0 -468 158 -545 396 l-26 81 -19 830 c-10 457 -23
1168 -28 1580 -6 413 -16 806 -22 873 -47 553 -285 1061 -684 1457 -371 369
-846 603 -1358 670 -108 14 -445 19 -547 8z" />
    <path d="M5787 5400 c-104 -27 -179 -90 -226 -190 -20 -44 -25 -70 -25 -132 1
-134 69 -238 194 -297 46 -22 68 -26 135 -25 119 2 207 50 269 147 82 130 71
277 -30 395 -68 80 -215 127 -317 102z" />
    <path d="M4731 5379 c-86 -17 -181 -92 -223 -178 -18 -38 -23 -63 -23 -141 0
-111 19 -162 88 -231 66 -66 135 -94 232 -94 100 1 163 26 228 93 75 77 92
121 92 232 0 110 -17 154 -88 228 -50 52 -93 76 -165 91 -60 12 -78 12 -141 0z" />
  </g>
  </g>
</svg>
